<svg xmlns="http://www.w3.org/2000/svg" width="1411.368" height="145.329" viewBox="0 0 1411.368 145.329"><path d="M1295.479,156.3h37.637c12.133,0,21.046-1.742,26.989-4.977,12.876-7.216,19.561-20.9,19.561-41.806q0-22.4-10.4-34.34a33.782,33.782,0,0,0-14.113-9.456c-5.448-1.991-12.876-2.737-22.037-2.737h-37.637Zm-29.96,12.193V50.789c0-2.239-.5-3.732-1.486-4.728a11.3,11.3,0,0,0-4.952-2.737V40.088h76.511c16.837,0,29.713,1.991,38.626,5.723a56.132,56.132,0,0,1,28.723,27.87q7.428,15.3,7.428,35.833c0,23.889-7.181,42.3-21.79,54.994a59.885,59.885,0,0,1-21.542,11.447c-8.171,2.239-18.571,3.484-31.446,3.484h-76.511v-3.235c2.476-.747,3.962-1.493,4.952-2.737A7.921,7.921,0,0,0,1265.519,168.491ZM1113.24,83.885v84.606c0,2.24.5,3.733,1.486,4.728a11.3,11.3,0,0,0,4.952,2.737v3.235h-40.113v-3.235c2.476-.747,3.962-1.493,4.952-2.737a6.758,6.758,0,0,0,1.486-4.728V50.789a6.759,6.759,0,0,0-1.486-4.728,11.3,11.3,0,0,0-4.952-2.737V40.088h46.55v3.235c-2.971.746-4.209,2.24-4.209,4.728,0,1.742.99,3.484,2.724,5.475l76.016,79.629V50.789a6.758,6.758,0,0,0-1.486-4.728,11.3,11.3,0,0,0-4.952-2.737V40.088h40.112v3.235c-2.476.746-3.961,1.493-4.952,2.737a6.759,6.759,0,0,0-1.486,4.728v117.7c0,2.24.5,3.733,1.486,4.728a11.3,11.3,0,0,0,4.952,2.737v3.235h-43.331v-3.235c2.724-.747,4.21-1.991,4.21-4.479,0-1.244-1.734-3.733-4.952-7.217ZM978.79,60.991c-13.123,0-24.018,3.981-32.932,11.944-10.4,9.207-15.6,21.649-15.6,36.58q0,22.769,15.6,36.58c8.666,7.963,19.809,11.944,32.932,11.944,13.371,0,24.265-3.981,32.932-11.944a46.457,46.457,0,0,0,11.885-17.17,48.269,48.269,0,0,0,3.714-18.663q0-23.889-15.6-37.327C1003.055,65.222,991.913,61.24,978.79,60.991ZM978.542,37.6c24.018,0,43.083,6.47,56.95,19.659,14.856,13.686,22.284,31.6,22.284,53.252a68.8,68.8,0,0,1-10.647,37.326c-13.866,22.645-36.646,33.843-68.339,33.843-23.771,0-42.589-6.47-56.7-19.659A70.7,70.7,0,0,1,905,136.888a72.726,72.726,0,0,1-5.2-27.373A71.548,71.548,0,0,1,910.45,71.194C923.821,49.047,946.6,37.849,978.542,37.6ZM788.38,179.191,737.868,83.138v85.353c0,2.24.5,3.733,1.486,4.728a11.3,11.3,0,0,0,4.952,2.737v3.235H704.194v-3.235c2.476-.747,3.962-1.493,4.952-2.737a6.758,6.758,0,0,0,1.486-4.728V50.789a6.759,6.759,0,0,0-1.486-4.728,11.3,11.3,0,0,0-4.952-2.737V40.088h52.74v3.235c-3.219.746-4.7,2.737-4.7,5.723a10.3,10.3,0,0,0,1.486,4.728L791.1,125.441l37.884-70.423c1.733-3.235,2.476-5.475,2.476-6.719,0-2.737-1.733-4.23-4.952-4.728V40.337h52v3.235c-2.476.746-3.962,1.493-4.952,2.737a6.758,6.758,0,0,0-1.486,4.728v117.7c0,2.24.5,3.733,1.486,4.728a11.3,11.3,0,0,0,4.952,2.737v3.235H835.673v-3.235a13.07,13.07,0,0,0,4.952-2.488,6.758,6.758,0,0,0,1.486-4.728V83.138Zm-199.076,0-50.512-96.3v85.353c0,2.24.5,3.733,1.486,4.728a11.3,11.3,0,0,0,4.952,2.737v3.235H505.118v-3.235c2.476-.747,3.962-1.493,4.952-2.737a6.759,6.759,0,0,0,1.486-4.728V50.789a6.759,6.759,0,0,0-1.486-4.728,11.3,11.3,0,0,0-4.952-2.737V40.088h52.74v3.235c-3.219.746-4.7,2.737-4.7,5.723a10.3,10.3,0,0,0,1.486,4.728l37.389,71.667,37.884-70.423c1.733-3.235,2.476-5.475,2.476-6.719,0-2.737-1.733-4.23-4.952-4.728V40.337h52v3.235c-2.476.746-3.962,1.493-4.952,2.737A6.76,6.76,0,0,0,673,51.037v117.7c0,2.24.5,3.733,1.485,4.728a11.3,11.3,0,0,0,4.952,2.737v3.235H636.6v-3.235a13.068,13.068,0,0,0,4.952-2.488,6.758,6.758,0,0,0,1.486-4.728V83.138ZM476.4,50.789v78.137c0,14.682-2.724,25.88-7.923,33.1-9.657,13.189-29.713,19.907-59.921,19.907-21.789,0-38.627-3.484-50.264-10.7a33.588,33.588,0,0,1-14.114-16.921c-2.476-7.217-3.714-15.428-3.714-25.382V50.789c0-2.239-.5-3.732-1.486-4.728a11.3,11.3,0,0,0-4.952-2.737V40.088h42.836v3.235a11.375,11.375,0,0,0-4.952,2.488,6.758,6.758,0,0,0-1.486,4.728v69.427a103.233,103.233,0,0,0,1.238,17.917,20.2,20.2,0,0,0,4.952,9.705c6.438,6.968,17.333,10.451,32.932,10.451s26.742-3.484,32.932-10.451a19.831,19.831,0,0,0,4.7-9.705,101.153,101.153,0,0,0,1.238-17.917V50.789c0-2.239-.5-3.732-1.486-4.728a11.3,11.3,0,0,0-4.952-2.737V40.088h40.855v3.235c-2.476.746-3.962,1.493-4.952,2.737C476.891,47.056,476.4,48.549,476.4,50.789ZM209.228,99.562h46.3a98,98,0,0,0,14.609-.747,25.3,25.3,0,0,0,7.676-2.488c5.2-2.737,7.676-7.714,7.676-15.179,0-7.216-2.476-12.193-7.676-15.179a21.4,21.4,0,0,0-7.676-2.489c-2.724-.5-7.676-.5-14.609-.5h-46.3Zm0,22.894v46.036a6.758,6.758,0,0,0,1.486,4.728c.99,1.244,2.724,1.991,4.952,2.489v3.235H172.83v-3.235c2.476-.747,3.962-1.493,4.952-2.737a6.758,6.758,0,0,0,1.486-4.728V50.789c0-2.239-.5-3.732-1.486-4.728a11.3,11.3,0,0,0-4.952-2.737V40.088h85.92a160.711,160.711,0,0,1,25.008,1.742,46.576,46.576,0,0,1,16.094,6.47,34.005,34.005,0,0,1,11.885,14.433A47.369,47.369,0,0,1,315.451,81.4c0,22.645-12.38,36.082-37.389,39.815L304.8,159.533c4.7,6.719,8.171,10.949,10.4,12.94a13.25,13.25,0,0,0,7.923,3.235v3.235H273.358v-3.235q5.2-.747,5.2-3.733c0-1.244-1.486-4.23-4.7-8.958l-28.227-40.561ZM36.4,156.3H74.282c12.133,0,21.047-1.742,26.989-4.977,12.876-7.216,19.561-20.9,19.561-41.806q0-22.4-10.4-34.34a33.782,33.782,0,0,0-14.114-9.456c-5.447-1.991-12.876-2.737-22.037-2.737H36.4ZM6.438,168.491V50.789c0-2.239-.5-3.732-1.486-4.728A11.3,11.3,0,0,0,0,43.323V40.088H76.511c16.837,0,29.713,1.991,38.627,5.723a56.132,56.132,0,0,1,28.722,27.87q7.428,15.3,7.428,35.833c0,23.889-7.181,42.3-21.789,54.994a59.888,59.888,0,0,1-21.542,11.447c-8.171,2.239-18.571,3.484-31.446,3.484H0v-3.235c2.476-.747,3.962-1.493,4.952-2.737A7.924,7.924,0,0,0,6.438,168.491Z" transform="translate(0.5 -37.1)" fill="none" stroke="#fff" stroke-width="1" fill-rule="evenodd"/></svg>