<svg xmlns="http://www.w3.org/2000/svg" width="198.661" height="20.33" viewBox="0 0 198.661 20.33">
  <path id="Caminho_90" data-name="Caminho 90" d="M182.478,54.319h5.3a8.15,8.15,0,0,0,3.8-.7c1.814-1.016,2.755-2.944,2.755-5.889a7.151,7.151,0,0,0-1.465-4.837,4.758,4.758,0,0,0-1.988-1.332,9.453,9.453,0,0,0-3.1-.386h-5.3Zm-4.22,1.718V39.458a.9.9,0,0,0-.209-.666,1.592,1.592,0,0,0-.7-.386v-.456h10.777a14.594,14.594,0,0,1,5.441.806,7.907,7.907,0,0,1,4.046,3.926,11.437,11.437,0,0,1,1.046,5.047c0,3.365-1.011,5.959-3.069,7.746a8.435,8.435,0,0,1-3.034,1.612,17.013,17.013,0,0,1-4.429.491H177.351v-.456a1.308,1.308,0,0,0,.7-.386A1.116,1.116,0,0,0,178.258,56.037ZM156.808,44.12V56.037a.9.9,0,0,0,.209.666,1.592,1.592,0,0,0,.7.386v.456h-5.65v-.456a1.308,1.308,0,0,0,.7-.386.952.952,0,0,0,.209-.666V39.458a.952.952,0,0,0-.209-.666,1.591,1.591,0,0,0-.7-.386v-.456h6.557v.456c-.419.105-.593.315-.593.666a1.239,1.239,0,0,0,.384.771L169.12,51.06v-11.6a.952.952,0,0,0-.209-.666,1.592,1.592,0,0,0-.7-.386v-.456h5.65v.456a1.308,1.308,0,0,0-.7.386.952.952,0,0,0-.209.666V56.037a.9.9,0,0,0,.209.666,1.592,1.592,0,0,0,.7.386v.456h-6.1v-.456c.384-.105.593-.28.593-.631,0-.175-.244-.526-.7-1.016ZM137.87,40.895a6.69,6.69,0,0,0-4.639,1.682,6.6,6.6,0,0,0-2.2,5.153,6.546,6.546,0,0,0,2.2,5.153,7.236,7.236,0,0,0,9.277,0,6.544,6.544,0,0,0,1.674-2.419,6.8,6.8,0,0,0,.523-2.629,6.57,6.57,0,0,0-2.2-5.258A6.966,6.966,0,0,0,137.87,40.895Zm-.035-3.295c3.383,0,6.069.911,8.022,2.769A10.3,10.3,0,0,1,147.5,53.128c-1.953,3.19-5.162,4.767-9.626,4.767a11.2,11.2,0,0,1-7.987-2.769,9.958,9.958,0,0,1-2.407-3.54,10.243,10.243,0,0,1-.732-3.856,10.078,10.078,0,0,1,1.5-5.4C130.127,39.212,133.336,37.635,137.835,37.6ZM111.049,57.544l-7.115-13.53V56.037a.9.9,0,0,0,.209.666,1.592,1.592,0,0,0,.7.386v.456h-5.65v-.456a1.308,1.308,0,0,0,.7-.386.952.952,0,0,0,.209-.666V39.458a.952.952,0,0,0-.209-.666,1.592,1.592,0,0,0-.7-.386v-.456h7.429v.456a.762.762,0,0,0-.663.806,1.451,1.451,0,0,0,.209.666l5.266,10.095,5.336-9.92a2.423,2.423,0,0,0,.349-.946c0-.386-.244-.6-.7-.666v-.456h7.324v.456a1.308,1.308,0,0,0-.7.386.952.952,0,0,0-.209.666V56.072a.9.9,0,0,0,.209.666,1.592,1.592,0,0,0,.7.386v.456h-6.034v-.456a1.841,1.841,0,0,0,.7-.351.952.952,0,0,0,.209-.666V44.014Zm-28.041,0L75.893,43.979V56a.9.9,0,0,0,.209.666,1.592,1.592,0,0,0,.7.386v.456H71.15v-.456a1.308,1.308,0,0,0,.7-.386A.952.952,0,0,0,72.056,56V39.458a.952.952,0,0,0-.209-.666,1.592,1.592,0,0,0-.7-.386v-.456h7.429v.456a.762.762,0,0,0-.663.806,1.451,1.451,0,0,0,.209.666l5.266,10.095,5.336-9.92a2.424,2.424,0,0,0,.349-.946c0-.386-.244-.6-.7-.666v-.456H95.7v.456a1.308,1.308,0,0,0-.7.386.952.952,0,0,0-.209.666V56.072a.9.9,0,0,0,.209.666,1.592,1.592,0,0,0,.7.386v.456H89.669v-.456a1.841,1.841,0,0,0,.7-.351.952.952,0,0,0,.209-.666V44.014ZM67.1,39.458V50.464a8.046,8.046,0,0,1-1.116,4.662c-1.36,1.858-4.185,2.8-8.44,2.8-3.069,0-5.441-.491-7.08-1.507a4.731,4.731,0,0,1-1.988-2.383,10.88,10.88,0,0,1-.523-3.575V39.458a.9.9,0,0,0-.209-.666,1.592,1.592,0,0,0-.7-.386v-.456h6.034v.456a1.6,1.6,0,0,0-.7.351.952.952,0,0,0-.209.666V49.2a14.541,14.541,0,0,0,.174,2.524,2.845,2.845,0,0,0,.7,1.367c.907.981,2.441,1.472,4.639,1.472s3.767-.491,4.639-1.472a2.793,2.793,0,0,0,.663-1.367,14.249,14.249,0,0,0,.174-2.524V39.458a.9.9,0,0,0-.209-.666,1.592,1.592,0,0,0-.7-.386v-.456h5.755v.456a1.308,1.308,0,0,0-.7.386A.9.9,0,0,0,67.1,39.458Zm-37.633,6.87h6.522a13.8,13.8,0,0,0,2.058-.105,3.564,3.564,0,0,0,1.081-.351,2.173,2.173,0,0,0,1.081-2.138A2.24,2.24,0,0,0,39.132,41.6a3.015,3.015,0,0,0-1.081-.351,14.953,14.953,0,0,0-2.058-.07H29.471Zm0,3.225v6.484a.952.952,0,0,0,.209.666,1.2,1.2,0,0,0,.7.351v.456H24.344v-.456a1.308,1.308,0,0,0,.7-.386A.952.952,0,0,0,25.251,56V39.458a.9.9,0,0,0-.209-.666,1.592,1.592,0,0,0-.7-.386v-.456h12.1a22.639,22.639,0,0,1,3.523.245,6.56,6.56,0,0,1,2.267.911A4.79,4.79,0,0,1,43.91,41.14a6.672,6.672,0,0,1,.523,2.629c0,3.19-1.744,5.082-5.266,5.608l3.767,5.4A11.869,11.869,0,0,0,44.4,56.6a1.866,1.866,0,0,0,1.116.456v.456H38.5v-.456q.732-.105.732-.526a3.5,3.5,0,0,0-.663-1.262L34.6,49.552ZM5.127,54.319h5.336a8.15,8.15,0,0,0,3.8-.7c1.814-1.016,2.755-2.944,2.755-5.889a7.151,7.151,0,0,0-1.465-4.837,4.758,4.758,0,0,0-1.988-1.332,9.452,9.452,0,0,0-3.1-.386H5.127ZM.907,56.037V39.458A.9.9,0,0,0,.7,38.792a1.592,1.592,0,0,0-.7-.386v-.456H10.777a14.594,14.594,0,0,1,5.441.806,7.907,7.907,0,0,1,4.046,3.926A11.437,11.437,0,0,1,21.31,47.73c0,3.365-1.011,5.959-3.069,7.746a8.435,8.435,0,0,1-3.034,1.612,17.013,17.013,0,0,1-4.429.491H0v-.456a1.308,1.308,0,0,0,.7-.386A1.116,1.116,0,0,0,.907,56.037Z" transform="translate(0 -37.6)" fill="#fff" fill-rule="evenodd"/>
</svg>
