<svg xmlns="http://www.w3.org/2000/svg" width="46.583" height="18.706" viewBox="0 0 46.583 18.706">
  <g id="Agrupar_5052" data-name="Agrupar 5052" transform="translate(0 0)">
    <path id="Caminho_47" data-name="Caminho 47" d="M0,5.015A.294.294,0,0,1,.172,4.99c.755,0,1.51,0,2.265,0,.127,0,.163-.028.163-.161C2.593,3.456,2.6,2.079,2.592.7c0-.136.026-.183.173-.181q1.787.009,3.573,0c.131,0,.162.036.162.164,0,1.382,0,2.764-.006,4.147,0,.131.032.163.162.162,1.064-.013,2.127-.031,3.191-.007.172,0,.392-.036.5.054s.049.322.058.491a8.473,8.473,0,0,1-.02,1.013c-.007.112-.043.147-.157.149-1.152.033-2.3.009-3.456,0-.273,0-.273,0-.273.265v11.97c0,.064,0,.127,0,.191-.04.043-.092.022-.138.022q-1.8,0-3.6,0c-.062,0-.13.017-.18-.039a.607.607,0,0,1-.033-.3q0-5.863,0-11.728c0-.368.027-.335-.331-.335H.239A.33.33,0,0,1,0,6.691Q0,5.853,0,5.015Z" transform="translate(0 -0.456)" fill="#fff"/>
    <path id="Caminho_48" data-name="Caminho 48" d="M21.12,152.175c0-.022,0-.043,0-.065.028.036.069.031.108.031l3.767,0,.029,0c0,.012,0,.026,0,.038Z" transform="translate(-18.532 -133.471)" fill="#fff"/>
    <path id="Caminho_49" data-name="Caminho 49" d="M197.28,152.089c0-.012,0-.026,0-.038a.293.293,0,0,1,.2-.038q1.752,0,3.5,0a.312.312,0,0,1,.2.037l.007.04Z" transform="translate(-173.106 -133.385)" fill="#fff"/>
    <path id="Caminho_50" data-name="Caminho 50" d="M197.281.032c0-.011,0-.021,0-.032h1.912a.257.257,0,0,1,0,.031A.254.254,0,0,1,199,.076q-.761,0-1.521,0A.268.268,0,0,1,197.281.032Z" transform="translate(-173.106)" fill="#fff"/>
    <path id="Caminho_51" data-name="Caminho 51" d="M129.936,152.052c0,.009,0,.017,0,.026h-.823c0-.009,0-.018,0-.027a.119.119,0,0,1,.091-.043,5.982,5.982,0,0,1,.646,0A.118.118,0,0,1,129.936,152.052Z" transform="translate(-113.289 -133.373)" fill="#fff"/>
    <path id="Caminho_52" data-name="Caminho 52" d="M197.255.26h1.909q.965,1.526,1.93,3.05a.367.367,0,0,1,.066.2q0,7.691,0,15.38c-.18,0-.361.007-.542.006l-3.358,0q0-3.593,0-7.187l0-11.258C197.25.387,197.254.324,197.255.26Z" transform="translate(-173.079 -0.228)" fill="#fff"/>
    <path id="Caminho_53" data-name="Caminho 53" d="M322.5,90.392a4.026,4.026,0,1,1-8.051-.1,4.093,4.093,0,0,1,4.019-3.92A4.034,4.034,0,0,1,322.5,90.392Z" transform="translate(-275.913 -75.785)" fill="#fff"/>
    <path id="Caminho_54" data-name="Caminho 54" d="M247.023,90.6a4.018,4.018,0,1,1-8.035-.058,4.018,4.018,0,0,1,8.035.058Z" transform="translate(-209.703 -75.997)" fill="#fff"/>
    <path id="Caminho_55" data-name="Caminho 55" d="M322.633,14.874a4.013,4.013,0,1,1-4.013-4.006A4.016,4.016,0,0,1,322.633,14.874Z" transform="translate(-276.056 -9.537)" fill="#fff"/>
    <path id="Caminho_56" data-name="Caminho 56" d="M86.662,47.334c-.524-.174-1.049-.348-1.57-.533-.136-.049-.194-.015-.239.114a2.917,2.917,0,0,1-.631,1.032,4.133,4.133,0,0,1-3.233,1.343,3.054,3.054,0,0,1-2.437-1.13,5.556,5.556,0,0,1-1.075-2.245c-.066-.284-.059-.288.217-.2a7.634,7.634,0,0,0,2.051.337,13.325,13.325,0,0,0,3.077-.1,6.636,6.636,0,0,0,2.506-.991,4.018,4.018,0,0,0,.952-5.867,5.085,5.085,0,0,0-2.354-1.638,9.6,9.6,0,0,0-4.609-.526,6.97,6.97,0,0,0-3.392,1.281,6.833,6.833,0,0,0-2.733,4.78,7.44,7.44,0,0,0,.289,3.309,6.322,6.322,0,0,0,2.87,3.67,7.836,7.836,0,0,0,3.631,1.044h.826c.229-.021.46-.034.687-.062a7.607,7.607,0,0,0,3.23-1.121,4.895,4.895,0,0,0,2.006-2.348C86.77,47.388,86.747,47.363,86.662,47.334Zm-9.386-3.6a8.355,8.355,0,0,1,.68-2.943,3.706,3.706,0,0,1,1.353-1.643,3.1,3.1,0,0,1,2.812-.321,2.346,2.346,0,0,1,1.4,1.489,4.142,4.142,0,0,1,.158,2.328,2,2,0,0,1-1.206,1.42,6.863,6.863,0,0,1-2.314.555c-.185.016-.371.025-.483.032a5.942,5.942,0,0,1-1.945-.234C77.288,44.272,77.232,44.2,77.275,43.738Z" transform="translate(-64.162 -32.336)" fill="#fff"/>
  </g>
</svg>
