<svg xmlns="http://www.w3.org/2000/svg" width="66.619" height="21.832" viewBox="0 0 66.619 21.832">
  <g id="Agrupar_5053" data-name="Agrupar 5053" transform="translate(0 0.034)">
    <path id="Caminho_57" data-name="Caminho 57" d="M305.32,41.321c-.464-.084-.931-.156-1.393-.252a4.175,4.175,0,0,1-2.681-1.752,3.737,3.737,0,0,1-.6-1.938c-.063-.988-.077-1.978-.087-2.969s.012-1.981.01-2.974c0-.251-.033-.5-.054-.785H298.37V27.615c.647-.164,1.286-.333,1.93-.485a.288.288,0,0,0,.263-.342c-.012-.8-.006-1.6-.006-2.4v-.3l4.379-1.142v4.026h3.424v3.652h-3.387c-.012.111-.03.189-.03.269q0,2.436,0,4.871c0,.116,0,.233.012.348a1.382,1.382,0,0,0,1.491,1.488,6,6,0,0,0,.884-.009c.282-.021.56-.077.865-.122.009.1.024.176.024.254-.012.98-.033,1.96-.033,2.941a.3.3,0,0,1-.252.336c-.467.114-.937.219-1.405.329Z" transform="translate(-253.581 -19.525)" fill="#fff"/>
    <path id="Caminho_58" data-name="Caminho 58" d="M184.727,55.3c-.521,2.809-1.04,5.617-1.566,8.45-.2,0-.39,0-.576,0-1.127-.011-2.256-.027-3.384-.027-.218,0-.3-.056-.353-.281Q177.3,56.62,175.734,49.8a1.936,1.936,0,0,1-.024-.2c.1-.008.179-.018.261-.018,1.244.006,2.487.017,3.732.014.213,0,.281.065.311.278.353,2.46.718,4.918,1.13,7.387.081-.32.167-.638.245-.958.515-2.127,1.034-4.254,1.536-6.384.065-.272.177-.342.443-.336.98.02,1.96.014,2.941.018h.32l1.83,7.63c.023,0,.047,0,.069,0,.347-2.531.694-5.062,1.043-7.62h4.355q-1.671,7.05-3.342,14.093h-3.224c-.742,0-.737,0-.9-.737q-.82-3.781-1.645-7.558c-.008-.038-.021-.074-.032-.111C184.766,55.3,184.747,55.3,184.727,55.3Z" transform="translate(-149.334 -42.173)" fill="#fff"/>
    <path id="Caminho_59" data-name="Caminho 59" d="M383.08,4.116c-.423-.11-.814-.234-1.211-.308a8.683,8.683,0,0,0-1.375-.165,1.106,1.106,0,0,0-1.2.911,8.565,8.565,0,0,0-.2,1.465c-.033.449-.008.9-.008,1.392H382.6v3.718h-3.562V21.3l-4.4-.126V11.134h-2.271c0-.482,0-.911,0-1.339,0-.453.015-.908-.015-1.36-.018-.273.084-.363.333-.413.527-.1,1.043-.257,1.572-.35.287-.051.33-.185.332-.443,0-.959-.022-1.923.077-2.873a7.818,7.818,0,0,1,.507-2.072A3.331,3.331,0,0,1,377.647.315a9.529,9.529,0,0,1,5.179.02c.1.029.242.135.243.206C383.083,1.724,383.08,2.9,383.08,4.116Z" transform="translate(-316.461 0)" fill="#fff"/>
    <path id="Caminho_60" data-name="Caminho 60" d="M0,51.544V44.23H7.129c.012.149.027.248.027.347,0,2.2,0,4.391.018,6.587,0,.281-.086.383-.366.383-2.234,0-4.467.009-6.7.014A.466.466,0,0,1,0,51.544Z" transform="translate(0 -37.619)" fill="#fff"/>
    <path id="Caminho_61" data-name="Caminho 61" d="M55.67,93.45V100.5H48.63V93.45Z" transform="translate(-41.33 -79.451)" fill="#fff"/>
    <path id="Caminho_62" data-name="Caminho 62" d="M97.42,65.512V64.2h7.117v1.312Z" transform="translate(-82.796 -54.592)" fill="#fff"/>
  </g>
</svg>
