<svg xmlns="http://www.w3.org/2000/svg" width="840.383" height="86" viewBox="0 0 840.383 86">
  <path id="Caminho_65" data-name="Caminho 65" d="M771.925,108.327h22.426c7.229,0,12.541-1.038,16.082-2.966,7.672-4.3,11.656-12.455,11.656-24.91q0-13.345-6.2-20.462a20.129,20.129,0,0,0-8.41-5.634c-3.246-1.186-7.672-1.631-13.131-1.631H771.925Zm-17.852,7.265V45.459a3.787,3.787,0,0,0-.885-2.817,6.734,6.734,0,0,0-2.951-1.631V39.083h45.59c10.033,0,17.7,1.186,23.016,3.41A33.447,33.447,0,0,1,835.957,59.1q4.426,9.119,4.426,21.352c0,14.234-4.279,25.207-12.984,32.769a35.682,35.682,0,0,1-12.836,6.821,71.969,71.969,0,0,1-18.737,2.076h-45.59v-1.928a5.534,5.534,0,0,0,2.951-1.631A4.721,4.721,0,0,0,754.073,115.593ZM663.336,65.179v50.414a3.787,3.787,0,0,0,.885,2.817,6.734,6.734,0,0,0,2.951,1.631v1.928h-23.9v-1.928a5.534,5.534,0,0,0,2.951-1.631,4.027,4.027,0,0,0,.885-2.817V45.459a4.027,4.027,0,0,0-.885-2.817,6.733,6.733,0,0,0-2.951-1.631V39.083h27.737V41.01c-1.771.445-2.508,1.334-2.508,2.817a5.243,5.243,0,0,0,1.623,3.262l45.295,47.448V45.459a4.027,4.027,0,0,0-.885-2.817,6.734,6.734,0,0,0-2.951-1.631V39.083h23.9V41.01a5.535,5.535,0,0,0-2.951,1.631,4.027,4.027,0,0,0-.885,2.817v70.134a3.787,3.787,0,0,0,.885,2.817,6.735,6.735,0,0,0,2.951,1.631v1.928H709.663v-1.928c1.623-.445,2.508-1.186,2.508-2.669,0-.741-1.033-2.224-2.951-4.3ZM583.222,51.538c-7.82,0-14.311,2.372-19.623,7.117-6.2,5.486-9.295,12.9-9.295,21.8q0,13.567,9.295,21.8c5.164,4.745,11.8,7.117,19.623,7.117,7.967,0,14.459-2.372,19.623-7.117a27.683,27.683,0,0,0,7.082-10.231A28.76,28.76,0,0,0,612.14,80.9q0-14.234-9.295-22.241C597.681,54.059,591.042,51.686,583.222,51.538ZM583.075,37.6c14.311,0,25.672,3.855,33.934,11.714,8.852,8.155,13.279,18.831,13.279,31.731a40.993,40.993,0,0,1-6.344,22.241c-8.262,13.493-21.836,20.165-40.721,20.165-14.164,0-25.377-3.855-33.786-11.714a42.126,42.126,0,0,1-10.18-14.976,43.333,43.333,0,0,1-3.1-16.31A42.632,42.632,0,0,1,542.5,57.617C550.469,44.421,564.042,37.748,583.075,37.6Zm-113.31,84.369-30.1-57.234v50.858a3.787,3.787,0,0,0,.885,2.817,6.734,6.734,0,0,0,2.951,1.631v1.928H419.6v-1.928a5.535,5.535,0,0,0,2.951-1.631,4.027,4.027,0,0,0,.885-2.817V45.459a4.027,4.027,0,0,0-.885-2.817A6.734,6.734,0,0,0,419.6,41.01V39.083h31.426V41.01a3.224,3.224,0,0,0-2.8,3.41,6.139,6.139,0,0,0,.885,2.817l22.278,42.7,22.573-41.962a10.252,10.252,0,0,0,1.475-4c0-1.631-1.033-2.521-2.951-2.817V39.231h30.983v1.928a5.535,5.535,0,0,0-2.951,1.631,4.027,4.027,0,0,0-.885,2.817v70.134a3.787,3.787,0,0,0,.885,2.817,6.734,6.734,0,0,0,2.951,1.631v1.928H497.945v-1.928a7.788,7.788,0,0,0,2.951-1.483,4.027,4.027,0,0,0,.885-2.817V64.734Zm-118.621,0-30.1-57.383v50.858a3.787,3.787,0,0,0,.885,2.817,6.734,6.734,0,0,0,2.951,1.631v1.928h-23.9v-1.928a5.535,5.535,0,0,0,2.951-1.631,4.027,4.027,0,0,0,.885-2.817V45.459a4.027,4.027,0,0,0-.885-2.817,6.734,6.734,0,0,0-2.951-1.631V39.083h31.426V41.01a3.224,3.224,0,0,0-2.8,3.41,6.138,6.138,0,0,0,.885,2.817l22.278,42.7L375.34,47.979a10.253,10.253,0,0,0,1.475-4c0-1.631-1.033-2.521-2.951-2.817V39.231h30.983v1.928A5.535,5.535,0,0,0,401.9,42.79a4.027,4.027,0,0,0-.885,2.817v70.134a3.787,3.787,0,0,0,.885,2.817,6.734,6.734,0,0,0,2.951,1.631v1.928H379.323v-1.928a7.787,7.787,0,0,0,2.951-1.483,4.027,4.027,0,0,0,.885-2.817V64.734Zm-67.278-76.51V92.017c0,8.748-1.623,15.421-4.721,19.721-5.754,7.859-17.7,11.862-35.7,11.862-12.983,0-23.016-2.076-29.95-6.376a20.014,20.014,0,0,1-8.41-10.083,46.024,46.024,0,0,1-2.213-15.124V45.459a3.787,3.787,0,0,0-.885-2.817,6.734,6.734,0,0,0-2.951-1.631V39.083h25.524V41.01a6.778,6.778,0,0,0-2.951,1.483,4.027,4.027,0,0,0-.885,2.817V86.679a61.511,61.511,0,0,0,.738,10.676,12.033,12.033,0,0,0,2.951,5.783c3.836,4.152,10.328,6.228,19.623,6.228s15.934-2.076,19.623-6.228a11.816,11.816,0,0,0,2.8-5.783,60.277,60.277,0,0,0,.738-10.676V45.459a3.787,3.787,0,0,0-.885-2.817,6.734,6.734,0,0,0-2.951-1.631V39.083H287.7V41.01a5.535,5.535,0,0,0-2.951,1.631A3.787,3.787,0,0,0,283.865,45.459ZM124.671,74.521h27.59a58.4,58.4,0,0,0,8.7-.445,15.076,15.076,0,0,0,4.574-1.483c3.1-1.631,4.574-4.6,4.574-9.045,0-4.3-1.475-7.266-4.574-9.045a12.753,12.753,0,0,0-4.574-1.483,63.254,63.254,0,0,0-8.7-.3h-27.59Zm0,13.641v27.431a4.027,4.027,0,0,0,.885,2.817,5.074,5.074,0,0,0,2.951,1.483v1.928H102.982v-1.928a5.535,5.535,0,0,0,2.951-1.631,4.027,4.027,0,0,0,.885-2.817V45.459a3.787,3.787,0,0,0-.885-2.817,6.734,6.734,0,0,0-2.951-1.631V39.083h51.2a95.769,95.769,0,0,1,14.9,1.038,27.752,27.752,0,0,1,9.59,3.855,20.262,20.262,0,0,1,7.082,8.6A28.225,28.225,0,0,1,187.965,63.7c0,13.493-7.377,21.5-22.278,23.724l15.934,22.834a50.209,50.209,0,0,0,6.2,7.71,7.9,7.9,0,0,0,4.721,1.928v1.928H162.883v-1.928q3.1-.445,3.1-2.224c0-.741-.885-2.521-2.8-5.338L146.359,88.162ZM21.688,108.327H44.262c7.229,0,12.541-1.038,16.082-2.966C68.016,101.062,72,92.907,72,80.452q0-13.345-6.2-20.462a20.129,20.129,0,0,0-8.41-5.634c-3.246-1.186-7.672-1.631-13.131-1.631H21.688ZM3.836,115.593V45.459a3.787,3.787,0,0,0-.885-2.817A6.734,6.734,0,0,0,0,41.01V39.083H45.59c10.033,0,17.7,1.186,23.016,3.41A33.447,33.447,0,0,1,85.72,59.1q4.426,9.119,4.426,21.352c0,14.234-4.279,25.207-12.983,32.769a35.683,35.683,0,0,1-12.836,6.821,71.97,71.97,0,0,1-18.737,2.076H0v-1.928a5.535,5.535,0,0,0,2.951-1.631A4.722,4.722,0,0,0,3.836,115.593Z" transform="translate(0 -37.6)" fill="#fff" fill-rule="evenodd"/>
</svg>
