<svg xmlns="http://www.w3.org/2000/svg" width="2110.111" height="216.834" viewBox="0 0 2110.111 216.834">
  <path id="Caminho_64" data-name="Caminho 64" d="M1937.3,215.1h56.283c18.144,0,31.474-2.6,40.36-7.443C2053.2,196.87,2063.2,176.4,2063.2,145.145q0-33.492-15.551-51.354A50.517,50.517,0,0,0,2026.54,79.65c-8.147-2.977-19.255-4.093-32.955-4.093H1937.3Zm-44.8,18.234V57.323c0-3.349-.741-5.582-2.222-7.07a16.9,16.9,0,0,0-7.406-4.093V41.321h114.417c25.179,0,44.433,2.977,57.764,8.559A83.942,83.942,0,0,1,2098,91.558q11.109,22.886,11.109,53.586c0,35.724-10.738,63.262-32.585,82.24a89.551,89.551,0,0,1-32.214,17.118c-12.219,3.349-27.771,5.21-47.025,5.21H1882.871v-4.838c3.7-1.116,5.924-2.233,7.405-4.093A11.848,11.848,0,0,0,1892.5,233.339ZM1664.776,106.816V233.339c0,3.349.741,5.582,2.222,7.07a16.9,16.9,0,0,0,7.405,4.093v4.838h-59.985V244.5c3.7-1.116,5.925-2.233,7.406-4.093,1.481-1.489,2.222-4.093,2.222-7.07V57.323c0-2.977-.74-5.582-2.222-7.07a16.9,16.9,0,0,0-7.406-4.093V41.321h69.612v4.838c-4.443,1.116-6.295,3.349-6.295,7.07,0,2.6,1.481,5.21,4.073,8.187L1795.485,180.5V57.323c0-2.977-.74-5.582-2.222-7.07a16.9,16.9,0,0,0-7.405-4.093V41.321h59.985v4.838c-3.7,1.116-5.924,2.233-7.406,4.093-1.481,1.489-2.222,4.093-2.222,7.07V233.339c0,3.349.741,5.582,2.222,7.07a16.9,16.9,0,0,0,7.406,4.093v4.838h-64.8V244.5c4.073-1.116,6.295-2.977,6.295-6.7,0-1.861-2.592-5.582-7.406-10.792ZM1463.715,72.58c-19.625,0-35.917,5.954-49.247,17.862-15.552,13.769-23.327,32.375-23.327,54.7q0,34.05,23.327,54.7c12.96,11.908,29.622,17.862,49.247,17.862,20,0,36.287-5.954,49.247-17.862a69.477,69.477,0,0,0,17.773-25.677,72.179,72.179,0,0,0,5.554-27.91q0-35.724-23.328-55.819C1500,78.906,1483.34,72.952,1463.715,72.58Zm-.37-34.98c35.917,0,64.429,9.675,85.164,29.4,22.217,20.467,33.325,47.26,33.325,79.635a102.88,102.88,0,0,1-15.922,55.819c-20.736,33.864-54.8,50.609-102.2,50.609-35.547,0-63.688-9.675-84.794-29.4a105.725,105.725,0,0,1-25.549-37.585,108.753,108.753,0,0,1-7.776-40.934,107,107,0,0,1,15.922-57.308C1381.513,54.718,1415.578,37.972,1463.344,37.6ZM1178.97,249.34,1103.433,105.7v127.64c0,3.349.74,5.582,2.222,7.07a16.9,16.9,0,0,0,7.406,4.093v4.838h-59.985V244.5c3.7-1.116,5.925-2.233,7.406-4.093,1.481-1.489,2.222-4.093,2.222-7.07V57.323c0-2.977-.741-5.582-2.222-7.07a16.9,16.9,0,0,0-7.406-4.093V41.321h78.869v4.838c-4.813,1.116-7.035,4.093-7.035,8.559a15.407,15.407,0,0,0,2.222,7.07l55.912,107.173L1239.7,63.649c2.592-4.838,3.7-8.187,3.7-10.047,0-4.093-2.592-6.326-7.406-7.07V41.693h77.759v4.838c-3.7,1.116-5.925,2.233-7.406,4.093-1.481,1.489-2.222,4.093-2.222,7.07V233.711c0,3.349.74,5.582,2.222,7.07a16.9,16.9,0,0,0,7.406,4.093v4.838h-64.058v-4.838c3.332-1.116,5.925-2.233,7.406-3.721s2.222-4.093,2.222-7.07V105.7Zm-297.7,0L805.728,105.327v127.64c0,3.349.741,5.582,2.222,7.07a16.9,16.9,0,0,0,7.406,4.093v4.838H755.37v-4.838c3.7-1.116,5.924-2.233,7.406-4.093,1.481-1.489,2.222-4.093,2.222-7.07V57.323c0-2.977-.74-5.582-2.222-7.07a16.9,16.9,0,0,0-7.406-4.093V41.321h78.87v4.838c-4.814,1.116-7.035,4.093-7.035,8.559a15.405,15.405,0,0,0,2.222,7.07l55.912,107.173L941.991,63.649c2.592-4.838,3.7-8.187,3.7-10.047,0-4.093-2.592-6.326-7.406-7.07V41.693h77.759v4.838c-3.7,1.116-5.924,2.233-7.406,4.093-1.481,1.489-2.222,4.093-2.222,7.07V233.711c0,3.349.741,5.582,2.222,7.07a16.9,16.9,0,0,0,7.406,4.093v4.838H951.989v-4.838c3.333-1.116,5.925-2.233,7.405-3.721s2.222-4.093,2.222-7.07V105.7ZM712.418,57.323V174.171c0,21.956-4.073,38.7-11.849,49.493-14.441,19.723-44.434,29.77-89.608,29.77-32.585,0-57.764-5.21-75.167-16-10-6.326-17.033-14.513-21.106-25.3-3.7-10.792-5.554-23.072-5.554-37.957V57.323c0-3.349-.741-5.582-2.222-7.07a16.9,16.9,0,0,0-7.406-4.093V41.321h64.058v4.838c-3.7,1.116-5.925,2.233-7.406,3.721s-2.222,4.093-2.222,7.07V160.774c0,11.908.741,20.839,1.851,26.793A30.2,30.2,0,0,0,563.2,202.08c9.627,10.42,25.92,15.629,49.247,15.629s39.99-5.21,49.247-15.629a29.656,29.656,0,0,0,7.035-14.513c1.111-5.954,1.851-14.513,1.851-26.793V57.323c0-3.349-.741-5.582-2.222-7.07a16.9,16.9,0,0,0-7.406-4.093V41.321h61.1v4.838c-3.7,1.116-5.924,2.233-7.406,4.093C713.158,51.741,712.418,53.974,712.418,57.323ZM312.886,130.26h69.242c10.368,0,17.4-.372,21.847-1.116a37.837,37.837,0,0,0,11.479-3.721c7.776-4.093,11.479-11.536,11.479-22.7,0-10.792-3.7-18.234-11.479-22.7A32.005,32.005,0,0,0,403.975,76.3c-4.073-.744-11.479-.744-21.847-.744H312.886Zm0,34.236v68.844c0,2.977.741,5.582,2.222,7.07,1.481,1.861,4.073,2.977,7.406,3.721v4.838H258.455v-4.838c3.7-1.116,5.924-2.233,7.406-4.093,1.481-1.489,2.222-4.093,2.222-7.07V57.323c0-3.349-.741-5.582-2.222-7.07a16.9,16.9,0,0,0-7.406-4.093V41.321H386.942a240.352,240.352,0,0,1,37.4,2.6A69.651,69.651,0,0,1,448.408,53.6a50.853,50.853,0,0,1,17.773,21.583,70.837,70.837,0,0,1,5.554,27.91c0,33.864-18.514,53.958-55.912,59.54l39.99,57.308c7.035,10.047,12.219,16.374,15.552,19.351a19.814,19.814,0,0,0,11.849,4.838v4.838H408.789v-4.838q7.776-1.116,7.776-5.582c0-1.861-2.222-6.326-7.035-13.4L367.317,164.5ZM54.431,215.1h56.653c18.144,0,31.474-2.6,40.36-7.443C170.7,196.87,180.7,176.4,180.7,145.145q0-33.492-15.552-51.354A50.517,50.517,0,0,0,144.039,79.65c-8.146-2.977-19.255-4.093-32.955-4.093H54.431Zm-44.8,18.234V57.323c0-3.349-.741-5.582-2.222-7.07A16.9,16.9,0,0,0,0,46.159V41.321H114.416c25.179,0,44.434,2.977,57.764,8.559a83.942,83.942,0,0,1,42.952,41.678q11.108,22.886,11.108,53.586c0,35.724-10.738,63.262-32.585,82.24A89.554,89.554,0,0,1,161.442,244.5c-12.219,3.349-27.771,5.21-47.025,5.21H0v-4.838c3.7-1.116,5.924-2.233,7.406-4.093A11.85,11.85,0,0,0,9.627,233.339Z" transform="translate(0.5 -37.1)" fill="none" stroke="#fff" stroke-width="1" fill-rule="evenodd" opacity="0.2"/>
</svg>
