<svg xmlns="http://www.w3.org/2000/svg" width="319.529" height="32.699" viewBox="0 0 319.529 32.699">
  <path id="Caminho_23" data-name="Caminho 23" d="M293.5,64.492h8.527a13.108,13.108,0,0,0,6.115-1.128c2.917-1.635,4.432-4.736,4.432-9.471q0-5.074-2.356-7.78a7.653,7.653,0,0,0-3.2-2.142,15.2,15.2,0,0,0-4.993-.62H293.5Zm-6.788,2.762V40.588a1.44,1.44,0,0,0-.337-1.071,2.56,2.56,0,0,0-1.122-.62v-.733h17.334a23.474,23.474,0,0,1,8.751,1.3,12.717,12.717,0,0,1,6.507,6.314,18.4,18.4,0,0,1,1.683,8.118c0,5.412-1.627,9.584-4.937,12.459a13.567,13.567,0,0,1-4.88,2.593,27.364,27.364,0,0,1-7.124.789H285.254V69a2.1,2.1,0,0,0,1.122-.62A1.8,1.8,0,0,0,286.712,67.254Zm-34.5-19.168V67.254a1.44,1.44,0,0,0,.337,1.071,2.56,2.56,0,0,0,1.122.62v.733h-9.088v-.733a2.1,2.1,0,0,0,1.122-.62,1.531,1.531,0,0,0,.337-1.071V40.588a1.531,1.531,0,0,0-.337-1.071,2.56,2.56,0,0,0-1.122-.62v-.733H255.13V38.9c-.673.169-.954.507-.954,1.071a1.993,1.993,0,0,0,.617,1.24l17.222,18.041V40.588a1.531,1.531,0,0,0-.337-1.071,2.56,2.56,0,0,0-1.122-.62v-.733h9.088V38.9a2.1,2.1,0,0,0-1.122.62,1.531,1.531,0,0,0-.337,1.071V67.254a1.44,1.44,0,0,0,.337,1.071,2.561,2.561,0,0,0,1.122.62v.733h-9.817v-.733c.617-.169.954-.451.954-1.015,0-.282-.393-.846-1.122-1.635ZM221.752,42.9a10.76,10.76,0,0,0-7.461,2.706,10.609,10.609,0,0,0-3.534,8.287,10.528,10.528,0,0,0,3.534,8.287,11.638,11.638,0,0,0,14.922,0,10.526,10.526,0,0,0,2.693-3.89,10.935,10.935,0,0,0,.841-4.228,10.567,10.567,0,0,0-3.534-8.457A11.2,11.2,0,0,0,221.752,42.9Zm-.056-5.3c5.441,0,9.761,1.466,12.9,4.454a15.706,15.706,0,0,1,5.049,12.065,15.586,15.586,0,0,1-2.412,8.457c-3.141,5.13-8.3,7.667-15.483,7.667-5.385,0-9.649-1.466-12.846-4.454a16.017,16.017,0,0,1-3.871-5.694,16.475,16.475,0,0,1-1.178-6.2,16.209,16.209,0,0,1,2.412-8.682C209.3,40.193,214.459,37.656,221.7,37.6ZM178.613,69.679,167.169,47.917V67.254a1.44,1.44,0,0,0,.337,1.071,2.56,2.56,0,0,0,1.122.62v.733H159.54v-.733a2.1,2.1,0,0,0,1.122-.62A1.531,1.531,0,0,0,161,67.254V40.588a1.531,1.531,0,0,0-.337-1.071,2.56,2.56,0,0,0-1.122-.62v-.733h11.949V38.9a1.226,1.226,0,0,0-1.066,1.3,2.334,2.334,0,0,0,.337,1.071L179.23,57.5l8.583-15.955a3.9,3.9,0,0,0,.561-1.522c0-.62-.393-.958-1.122-1.071V38.22h11.78v.733a2.1,2.1,0,0,0-1.122.62,1.531,1.531,0,0,0-.337,1.071V67.311a1.44,1.44,0,0,0,.337,1.071,2.56,2.56,0,0,0,1.122.62v.733h-9.7V69a2.961,2.961,0,0,0,1.122-.564,1.531,1.531,0,0,0,.337-1.071V47.917Zm-45.1,0L122.067,47.861V67.2a1.44,1.44,0,0,0,.337,1.071,2.56,2.56,0,0,0,1.122.62v.733h-9.088v-.733a2.1,2.1,0,0,0,1.122-.62A1.531,1.531,0,0,0,115.9,67.2V40.588a1.531,1.531,0,0,0-.337-1.071,2.56,2.56,0,0,0-1.122-.62v-.733h11.949V38.9a1.226,1.226,0,0,0-1.066,1.3,2.334,2.334,0,0,0,.337,1.071L134.128,57.5l8.583-15.955a3.9,3.9,0,0,0,.561-1.522c0-.62-.393-.958-1.122-1.071V38.22h11.78v.733a2.1,2.1,0,0,0-1.122.62,1.531,1.531,0,0,0-.337,1.071V67.311a1.44,1.44,0,0,0,.337,1.071,2.561,2.561,0,0,0,1.122.62v.733h-9.7V69a2.961,2.961,0,0,0,1.122-.564,1.531,1.531,0,0,0,.337-1.071V47.917Zm-25.58-29.091v17.7c0,3.326-.617,5.863-1.8,7.5C103.948,68.777,99.4,70.3,92.56,70.3c-4.937,0-8.751-.789-11.388-2.424a7.61,7.61,0,0,1-3.2-3.834,17.5,17.5,0,0,1-.841-5.75v-17.7a1.44,1.44,0,0,0-.337-1.071,2.56,2.56,0,0,0-1.122-.62v-.733h9.7V38.9a2.577,2.577,0,0,0-1.122.564,1.531,1.531,0,0,0-.337,1.071V56.261a23.387,23.387,0,0,0,.28,4.059,4.575,4.575,0,0,0,1.122,2.2c1.459,1.579,3.927,2.368,7.461,2.368s6.058-.789,7.461-2.368a4.493,4.493,0,0,0,1.066-2.2,22.918,22.918,0,0,0,.28-4.059V40.588a1.44,1.44,0,0,0-.337-1.071,2.56,2.56,0,0,0-1.122-.62v-.733h9.256V38.9a2.1,2.1,0,0,0-1.122.62A1.44,1.44,0,0,0,107.931,40.588ZM47.4,51.638h10.49a22.2,22.2,0,0,0,3.31-.169,5.732,5.732,0,0,0,1.739-.564,3.5,3.5,0,0,0,1.739-3.439,3.6,3.6,0,0,0-1.739-3.439,4.849,4.849,0,0,0-1.739-.564,24.051,24.051,0,0,0-3.31-.113H47.4Zm0,5.187v10.43a1.531,1.531,0,0,0,.337,1.071,1.929,1.929,0,0,0,1.122.564v.733h-9.7v-.733a2.1,2.1,0,0,0,1.122-.62,1.531,1.531,0,0,0,.337-1.071V40.588a1.44,1.44,0,0,0-.337-1.071,2.56,2.56,0,0,0-1.122-.62v-.733H58.622a36.413,36.413,0,0,1,5.666.395,10.552,10.552,0,0,1,3.646,1.466,7.7,7.7,0,0,1,2.693,3.27,10.732,10.732,0,0,1,.841,4.228c0,5.13-2.8,8.175-8.471,9.02l6.058,8.682a19.091,19.091,0,0,0,2.356,2.932,3,3,0,0,0,1.8.733v.733H61.931v-.733q1.178-.169,1.178-.846a5.627,5.627,0,0,0-1.066-2.03l-6.4-9.189ZM8.246,64.492h8.583a13.108,13.108,0,0,0,6.115-1.128c2.917-1.635,4.432-4.736,4.432-9.471q0-5.074-2.356-7.78a7.653,7.653,0,0,0-3.2-2.142,15.2,15.2,0,0,0-4.993-.62H8.246ZM1.459,67.254V40.588a1.44,1.44,0,0,0-.337-1.071A2.56,2.56,0,0,0,0,38.9v-.733H17.334a23.473,23.473,0,0,1,8.751,1.3,12.717,12.717,0,0,1,6.507,6.314,18.4,18.4,0,0,1,1.683,8.118c0,5.412-1.627,9.584-4.937,12.459a13.567,13.567,0,0,1-4.88,2.593,27.364,27.364,0,0,1-7.124.789H0V69a2.1,2.1,0,0,0,1.122-.62A1.8,1.8,0,0,0,1.459,67.254Z" transform="translate(0.001 -37.6)" fill="#292929" fill-rule="evenodd"/>
</svg>
