<svg id="Agrupar_4947" data-name="Agrupar 4947" xmlns="http://www.w3.org/2000/svg" width="95.23" height="38.24" viewBox="0 0 95.23 38.24">
  <path id="Caminho_47" data-name="Caminho 47" d="M0,9.708a.6.6,0,0,1,.351-.05c1.543,0,3.086-.008,4.629.005.261,0,.333-.058.333-.328C5.3,6.522,5.311,3.706,5.3.891c0-.278.053-.373.353-.371q3.652.019,7.3,0c.268,0,.331.073.331.336-.01,2.826,0,5.651-.013,8.477,0,.268.065.333.331.331,2.174-.028,4.349-.063,6.523-.015.351.008.8-.073,1.02.11s.1.659.118,1a17.321,17.321,0,0,1-.04,2.072c-.015.228-.088.3-.321.306-2.355.068-4.71.018-7.064.008-.559,0-.559,0-.559.541v24.47c0,.13,0,.261-.005.391-.083.088-.188.045-.283.045q-3.682,0-7.365,0c-.128,0-.266.035-.368-.08a1.242,1.242,0,0,1-.068-.619q0-11.987,0-23.976c0-.752.055-.684-.676-.684-1.343,0-2.683,0-4.026,0a.674.674,0,0,1-.488-.1Q0,11.422,0,9.708Z" transform="translate(0 -0.39)" fill="#fff"/>
  <path id="Caminho_48" data-name="Caminho 48" d="M21.12,152.243c0-.045.005-.088.005-.133.058.073.14.063.22.063l7.7-.005a.487.487,0,0,0,.06-.005c0,.025.005.053.01.078Q25.118,152.244,21.12,152.243Z" transform="translate(-15.829 -114.005)" fill="#fff"/>
  <path id="Caminho_49" data-name="Caminho 49" d="M197.28,152.17c0-.025.008-.053.01-.078a.6.6,0,0,1,.4-.078q3.581,0,7.165,0a.638.638,0,0,1,.406.075l.015.083Q201.277,152.168,197.28,152.17Z" transform="translate(-147.86 -113.932)" fill="#fff"/>
  <path id="Caminho_50" data-name="Caminho 50" d="M197.283.065c0-.023,0-.043,0-.065h3.908a.524.524,0,0,1,0,.063.519.519,0,0,1-.4.093q-1.556,0-3.109,0A.548.548,0,0,1,197.283.065Z" transform="translate(-147.86)" fill="#fff"/>
  <path id="Caminho_51" data-name="Caminho 51" d="M130.8,152.107c0,.018,0,.035,0,.053h-1.683c0-.018,0-.038,0-.055a.243.243,0,0,1,.185-.088,12.224,12.224,0,0,1,1.32,0A.24.24,0,0,1,130.8,152.107Z" transform="translate(-96.767 -113.922)" fill="#fff"/>
  <path id="Caminho_52" data-name="Caminho 52" d="M197.26.26h3.9q1.973,3.119,3.945,6.235a.749.749,0,0,1,.135.418q0,15.722-.005,31.441c-.368.005-.739.015-1.107.013q-3.431,0-6.864-.01,0-7.346-.01-14.692,0-11.506-.008-23.014C197.25.521,197.258.39,197.26.26Z" transform="translate(-147.837 -0.195)" fill="#fff"/>
  <path id="Caminho_53" data-name="Caminho 53" d="M330.9,94.593a8.23,8.23,0,1,1-16.458-.21c-.088-4.224,3.976-8.054,8.217-8.014A8.247,8.247,0,0,1,330.9,94.593Z" transform="translate(-235.674 -64.733)" fill="#fff"/>
  <path id="Caminho_54" data-name="Caminho 54" d="M255.415,94.771a8.214,8.214,0,1,1-16.426-.118c-.053-5.093,4.76-8.056,8.179-8.044A8.261,8.261,0,0,1,255.415,94.771Z" transform="translate(-179.12 -64.913)" fill="#fff"/>
  <path id="Caminho_55" data-name="Caminho 55" d="M331.014,19.058a8.2,8.2,0,1,1-8.2-8.189A8.21,8.21,0,0,1,331.014,19.058Z" transform="translate(-235.796 -8.146)" fill="#fff"/>
  <path id="Caminho_56" data-name="Caminho 56" d="M100.8,58.282c-1.072-.356-2.144-.711-3.209-1.09-.278-.1-.4-.03-.488.233a5.964,5.964,0,0,1-1.29,2.109A8.45,8.45,0,0,1,89.2,62.28a6.243,6.243,0,0,1-4.983-2.31,11.358,11.358,0,0,1-2.2-4.589c-.135-.581-.12-.589.443-.413a15.606,15.606,0,0,0,4.193.689,27.241,27.241,0,0,0,6.29-.2,13.566,13.566,0,0,0,5.123-2.027,8.214,8.214,0,0,0,1.946-11.994,10.394,10.394,0,0,0-4.812-3.349,19.622,19.622,0,0,0-9.422-1.075,14.248,14.248,0,0,0-6.934,2.618A13.968,13.968,0,0,0,73.267,49.4a15.21,15.21,0,0,0,.591,6.764,12.924,12.924,0,0,0,5.867,7.5A16.02,16.02,0,0,0,87.148,65.8q.845,0,1.688,0c.468-.043.939-.07,1.405-.128a15.552,15.552,0,0,0,6.6-2.292,10.007,10.007,0,0,0,4.1-4.8C101.021,58.392,100.976,58.34,100.8,58.282ZM81.612,50.93A17.081,17.081,0,0,1,83,44.912a7.577,7.577,0,0,1,2.766-3.359,6.345,6.345,0,0,1,5.749-.656,4.8,4.8,0,0,1,2.868,3.044,8.467,8.467,0,0,1,.323,4.76,4.087,4.087,0,0,1-2.465,2.9,14.031,14.031,0,0,1-4.73,1.135c-.378.033-.759.05-.987.065a12.146,12.146,0,0,1-3.976-.478C81.637,52.022,81.524,51.884,81.612,50.93Z" transform="translate(-54.805 -27.62)" fill="#fff"/>
</svg>
