<svg xmlns="http://www.w3.org/2000/svg" width="114.059" height="37.378" viewBox="0 0 114.059 37.378">
  <g id="Agrupar_4948" data-name="Agrupar 4948" transform="translate(0 0.033)">
    <path id="Caminho_57" data-name="Caminho 57" d="M310.27,54.411c-.794-.144-1.593-.267-2.385-.432a7.148,7.148,0,0,1-4.59-3,6.4,6.4,0,0,1-1.025-3.318c-.108-1.691-.131-3.387-.149-5.084s.021-3.393.018-5.091c0-.429-.057-.861-.092-1.344H298.37v-5.2c1.108-.28,2.2-.571,3.305-.83a.492.492,0,0,0,.45-.586c-.021-1.372-.01-2.745-.01-4.115V24.9l7.5-1.956v6.893h5.862v6.253h-5.8c-.021.19-.051.324-.051.46q-.008,4.171-.005,8.34c0,.2.005.4.021.6a2.366,2.366,0,0,0,2.552,2.547,10.268,10.268,0,0,0,1.514-.015c.483-.036.959-.131,1.48-.208.015.164.041.3.041.434-.021,1.678-.057,3.357-.057,5.035a.51.51,0,0,1-.432.576c-.8.2-1.6.375-2.406.563C311.642,54.411,310.956,54.411,310.27,54.411Z" transform="translate(-221.686 -17.069)" fill="#fff"/>
    <path id="Caminho_58" data-name="Caminho 58" d="M191.149,59.365c-.892,4.809-1.781,9.617-2.681,14.467-.347,0-.668,0-.987,0-1.93-.018-3.863-.046-5.793-.046-.373,0-.517-.1-.6-.481q-2.652-11.677-5.333-23.347a3.317,3.317,0,0,1-.041-.339c.167-.013.306-.031.447-.031,2.131.01,4.259.028,6.389.023.365,0,.481.111.532.475.6,4.212,1.229,8.42,1.935,12.648.139-.547.285-1.092.419-1.64.882-3.642,1.771-7.284,2.629-10.931.111-.465.3-.586.758-.576,1.678.033,3.357.023,5.035.031h.547c1.051,4.385,2.092,8.723,3.133,13.064.039,0,.08,0,.118,0,.594-4.333,1.187-8.666,1.786-13.046H206.9q-2.861,12.071-5.721,24.128h-5.521c-1.27,0-1.262,0-1.534-1.262q-1.4-6.473-2.817-12.941c-.013-.064-.036-.126-.054-.19C191.215,59.373,191.182,59.37,191.149,59.365Z" transform="translate(-130.551 -36.868)" fill="#fff"/>
    <path id="Caminho_59" data-name="Caminho 59" d="M390.716,7.071c-.725-.188-1.393-.4-2.074-.527a14.867,14.867,0,0,0-2.354-.283,1.893,1.893,0,0,0-2.059,1.56,14.659,14.659,0,0,0-.344,2.508c-.057.768-.013,1.545-.013,2.382H389.9v6.366h-6.1V36.493c-2.56-.075-4.986-.144-7.528-.216V19.086h-3.889c0-.825,0-1.56,0-2.293,0-.776.026-1.555-.026-2.329-.031-.468.144-.622.571-.707.9-.177,1.786-.439,2.691-.6.491-.087.565-.316.568-.758.008-1.642-.039-3.292.131-4.919a13.39,13.39,0,0,1,.869-3.547A5.7,5.7,0,0,1,381.414.563,16.314,16.314,0,0,1,390.281.6c.164.049.414.231.416.352C390.721,2.977,390.716,4.994,390.716,7.071Z" transform="translate(-276.657 0)" fill="#fff"/>
    <path id="Caminho_60" data-name="Caminho 60" d="M0,56.752V44.23H12.205c.021.254.046.424.046.594.008,3.76.008,7.518.031,11.278,0,.481-.146.655-.627.655-3.824,0-7.649.015-11.473.023A.8.8,0,0,1,0,56.752Z" transform="translate(0 -32.888)" fill="#fff"/>
    <path id="Caminho_61" data-name="Caminho 61" d="M60.684,93.45v12.077H48.63V93.45Z" transform="translate(-36.132 -69.458)" fill="#fff"/>
    <path id="Caminho_62" data-name="Caminho 62" d="M97.42,66.446V64.2H109.6v2.246Z" transform="translate(-72.382 -47.725)" fill="#fff"/>
  </g>
</svg>
